<?xml version="1.0" encoding="utf-8"?>
<!-- Generator: Adobe Illustrator 17.1.0, SVG Export Plug-In . SVG Version: 6.00 Build 0)  -->
<!DOCTYPE svg PUBLIC "-//W3C//DTD SVG 1.1//EN" "http://www.w3.org/Graphics/SVG/1.1/DTD/svg11.dtd">
<svg version="1.1" id="Layer_1" xmlns="http://www.w3.org/2000/svg" xmlns:xlink="http://www.w3.org/1999/xlink" x="0px" y="0px"
	 viewBox="0 0 2025.073 446.152" enable-background="new 0 0 2025.073 446.152" xml:space="preserve">
<circle fill="none" stroke="#C7B9AC" stroke-width="6" stroke-miterlimit="10" cx="329.405" cy="256.545" r="66.667"/>
<circle fill="none" stroke="#C7B9AC" stroke-width="6" stroke-miterlimit="10" cx="97.221" cy="256.545" r="66.667"/>
<path fill="none" stroke="#C7B9AC" stroke-width="6" stroke-miterlimit="10" d="M163.888,256.545c0,0-19.54-218.391-14.943-233.333
	C204.118-2.075,351.244-3.225,378.83,17.465c1.149,94.253,17.241,233.333,17.241,233.333"/>
<path fill="none" stroke="#C7B9AC" stroke-width="6" stroke-miterlimit="10" d="M147.26,61.125c0,0,24.49-40.076,67.113-43.658
	s97.203-7.207,125.632-0.857c27.455,16.056,37.953,20.784,38.212,28.853C300.581,23.655,168.487,26.026,147.26,61.125z"/>
<path fill="none" stroke="#C7B9AC" stroke-width="6" stroke-miterlimit="10" d="M329.405,323.212c0,0-40.41,64.088-119.816,52.089
	S31.188,321.709,5.69,350.005c-25.499,28.296,138.023,100.303,165.022,86.803"/>
<path fill="none" stroke="#C7B9AC" stroke-width="6" stroke-miterlimit="10" d="M171.81,443.083l45.029,0.07
	c0.612,0.001,1.109-0.494,1.11-1.106l0.017-11.008c0.001-0.612-0.494-1.109-1.106-1.11l-45.029-0.07
	c-0.612-0.001-1.109,0.494-1.11,1.106l-0.017,11.008C170.702,442.585,171.198,443.082,171.81,443.083z"/>
<rect x="217.957" y="433.899" transform="matrix(1 0.0015 -0.0015 1 0.6747 -0.3497)" fill="none" stroke="#C7B9AC" stroke-width="6" stroke-miterlimit="10" width="17.681" height="5.779"/>
<rect x="237.431" y="433.919" transform="matrix(1 0.0015 -0.0015 1 0.6747 -0.369)" fill="none" stroke="#C7B9AC" stroke-width="6" stroke-miterlimit="10" width="3.786" height="5.779"/>
<path fill="none" stroke="#C7B9AC" stroke-width="6" stroke-miterlimit="10" d="M246.198,438.233l-2.14,1.215
	c-0.202,0.115-0.453-0.031-0.453-0.264l0.007-4.751c0-0.229,0.245-0.375,0.447-0.266l2.142,1.158l2.121,1.228
	c0.205,0.119,0.201,0.415-0.007,0.529L246.198,438.233z"/>
<circle fill="none" stroke="#C7B9AC" stroke-width="6" stroke-miterlimit="10" cx="347.317" cy="256.545" r="49.265"/>
<circle fill="none" stroke="#C7B9AC" stroke-width="6" stroke-miterlimit="10" cx="97.221" cy="256.545" r="49.265"/>
<line fill="none" stroke="#C7B9AC" stroke-width="6" stroke-miterlimit="10" x1="464.434" y1="61.125" x2="464.434" y2="355.549"/>
<text transform="matrix(1 0 0 1 503.4377 293.2952)" fill="#C7B9AC" font-family="'MyriadPro-Regular'" font-size="216.2977">Eco Instrumental</text>
</svg>
