<?xml version="1.0" encoding="utf-8"?>
<!-- Generator: Adobe Illustrator 17.1.0, SVG Export Plug-In . SVG Version: 6.00 Build 0)  -->
<!DOCTYPE svg PUBLIC "-//W3C//DTD SVG 1.1//EN" "http://www.w3.org/Graphics/SVG/1.1/DTD/svg11.dtd">
<svg version="1.1" id="Layer_1" xmlns="http://www.w3.org/2000/svg" xmlns:xlink="http://www.w3.org/1999/xlink" x="0px" y="0px"
	 viewBox="0 0 1630.548 446.152" enable-background="new 0 0 1630.548 446.152" xml:space="preserve">
<circle fill="none" stroke="#C7B9AC" stroke-width="6" stroke-miterlimit="10" cx="329.405" cy="256.545" r="66.667"/>
<circle fill="none" stroke="#C7B9AC" stroke-width="6" stroke-miterlimit="10" cx="97.221" cy="256.545" r="66.667"/>
<path fill="none" stroke="#C7B9AC" stroke-width="6" stroke-miterlimit="10" d="M163.888,256.545c0,0-19.54-218.391-14.943-233.333
	C204.118-2.075,351.244-3.225,378.83,17.465c1.149,94.253,17.241,233.333,17.241,233.333"/>
<path fill="none" stroke="#C7B9AC" stroke-width="6" stroke-miterlimit="10" d="M147.26,61.125c0,0,24.49-40.076,67.113-43.658
	s97.203-7.207,125.632-0.857c27.455,16.056,37.953,20.784,38.212,28.853C300.581,23.655,168.487,26.026,147.26,61.125z"/>
<path fill="none" stroke="#C7B9AC" stroke-width="6" stroke-miterlimit="10" d="M329.405,323.212c0,0-40.41,64.088-119.816,52.089
	S31.188,321.709,5.69,350.005c-25.499,28.296,138.023,100.303,165.022,86.803"/>
<path fill="none" stroke="#C7B9AC" stroke-width="6" stroke-miterlimit="10" d="M171.81,443.083l45.029,0.07
	c0.612,0.001,1.109-0.494,1.11-1.106l0.017-11.008c0.001-0.612-0.494-1.109-1.106-1.11l-45.029-0.07
	c-0.612-0.001-1.109,0.494-1.11,1.106l-0.017,11.008C170.702,442.585,171.198,443.082,171.81,443.083z"/>
<rect x="217.957" y="433.899" transform="matrix(1 0.0015 -0.0015 1 0.6747 -0.3497)" fill="none" stroke="#C7B9AC" stroke-width="6" stroke-miterlimit="10" width="17.681" height="5.779"/>
<rect x="237.431" y="433.919" transform="matrix(1 0.0015 -0.0015 1 0.6747 -0.369)" fill="none" stroke="#C7B9AC" stroke-width="6" stroke-miterlimit="10" width="3.786" height="5.779"/>
<path fill="none" stroke="#C7B9AC" stroke-width="6" stroke-miterlimit="10" d="M246.198,438.233l-2.14,1.215
	c-0.202,0.115-0.453-0.031-0.453-0.264l0.007-4.751c0-0.229,0.245-0.375,0.447-0.266l2.142,1.158l2.121,1.228
	c0.205,0.119,0.201,0.415-0.007,0.529L246.198,438.233z"/>
<circle fill="none" stroke="#C7B9AC" stroke-width="6" stroke-miterlimit="10" cx="347.317" cy="256.545" r="49.265"/>
<circle fill="none" stroke="#C7B9AC" stroke-width="6" stroke-miterlimit="10" cx="97.221" cy="256.545" r="49.265"/>
<line fill="none" stroke="#C7B9AC" stroke-width="6" stroke-miterlimit="10" x1="458.433" y1="61.523" x2="458.433" y2="364.553"/>
<g>
	<path fill="#C7B9AC" d="M563.648,224.962h-42.605v39.667h47.666v11.916h-62.03V166.522h59.582v11.917h-45.218v34.77h42.605V224.962
		z"/>
	<path fill="#C7B9AC" d="M642.326,273.77c-3.754,1.796-12.079,4.571-22.689,4.571c-23.833,0-39.341-16.161-39.341-40.32
		c0-24.322,16.65-42.115,42.442-42.115c8.488,0,15.997,2.122,19.915,4.244l-3.266,10.937c-3.428-1.796-8.814-3.754-16.649-3.754
		c-18.12,0-27.914,13.548-27.914,29.872c0,18.283,11.753,29.547,27.424,29.547c8.162,0,13.549-1.959,17.63-3.755L642.326,273.77z"/>
	<path fill="#C7B9AC" d="M729.658,236.389c0,29.22-20.405,41.952-39.341,41.952c-21.221,0-37.871-15.671-37.871-40.646
		c0-26.281,17.467-41.789,39.177-41.789C714.314,195.906,729.658,212.393,729.658,236.389z M667.138,237.204
		c0,17.304,9.794,30.362,23.833,30.362c13.712,0,23.996-12.896,23.996-30.688c0-13.385-6.693-30.199-23.67-30.199
		C674.483,206.679,667.138,222.35,667.138,237.204z"/>
	<path fill="#C7B9AC" d="M797.071,166.522v110.022h-14.364V166.522H797.071z"/>
	<path fill="#C7B9AC" d="M823.024,218.922c0-8.325-0.163-14.855-0.652-21.384h12.732l0.816,13.059h0.326
		c3.918-7.346,13.06-14.691,26.118-14.691c10.938,0,27.914,6.529,27.914,33.627v47.012h-14.365v-45.544
		c0-12.732-4.733-23.342-18.282-23.342c-9.305,0-16.65,6.693-19.263,14.691c-0.653,1.796-0.979,4.244-0.979,6.693v47.501h-14.365
		V218.922z"/>
	<path fill="#C7B9AC" d="M911.662,262.017c4.407,2.612,11.916,5.55,19.099,5.55c10.284,0,15.181-5.06,15.181-11.753
		c0-6.855-4.081-10.447-14.528-14.365c-14.364-5.224-21.058-12.895-21.058-22.363c0-12.732,10.447-23.18,27.261-23.18
		c7.999,0,15.019,2.122,19.263,4.897l-3.428,10.447c-3.102-1.959-8.815-4.734-16.161-4.734c-8.488,0-13.059,4.897-13.059,10.774
		c0,6.529,4.57,9.467,14.854,13.548c13.549,5.061,20.731,11.917,20.731,23.67c0,14.038-10.938,23.833-29.383,23.833
		c-8.652,0-16.65-2.285-22.201-5.551L911.662,262.017z"/>
	<path fill="#C7B9AC" d="M995.565,178.602v18.936h20.568v10.937h-20.568v42.605c0,9.794,2.775,15.344,10.773,15.344
		c3.918,0,6.203-0.326,8.325-0.979l0.653,10.938c-2.775,0.979-7.183,1.959-12.732,1.959c-6.693,0-12.08-2.285-15.508-6.04
		c-3.918-4.407-5.55-11.427-5.55-20.731v-43.094h-12.243v-10.937h12.243v-14.691L995.565,178.602z"/>
	<path fill="#C7B9AC" d="M1032.291,222.187c0-9.305-0.163-17.303-0.652-24.649h12.569l0.652,15.671h0.49
		c3.591-10.611,12.406-17.303,22.037-17.303c1.469,0,2.611,0.163,3.918,0.326v13.549c-1.47-0.326-2.938-0.326-4.897-0.326
		c-10.121,0-17.304,7.509-19.262,18.282c-0.327,1.959-0.49,4.407-0.49,6.693v42.115h-14.365V222.187z"/>
	<path fill="#C7B9AC" d="M1151.781,254.834c0,8.325,0.163,15.508,0.652,21.711h-12.732l-0.816-12.896h-0.326
		c-3.591,6.366-12.08,14.691-26.118,14.691c-12.406,0-27.261-7.02-27.261-34.606v-46.196h14.365v43.584
		c0,15.018,4.733,25.302,17.63,25.302c9.631,0,16.323-6.692,18.936-13.222c0.815-1.959,1.306-4.571,1.306-7.346v-48.318h14.365
		V254.834z"/>
	<path fill="#C7B9AC" d="M1175.611,218.922c0-8.325-0.326-14.855-0.652-21.384h12.569l0.652,12.896h0.49
		c4.407-7.509,11.753-14.528,24.976-14.528c10.61,0,18.772,6.529,22.2,15.834h0.326c2.449-4.571,5.714-7.835,8.979-10.284
		c4.734-3.591,9.794-5.55,17.304-5.55c10.61,0,26.118,6.856,26.118,34.28v46.359h-14.039V231.98c0-15.344-5.713-24.322-17.14-24.322
		c-8.325,0-14.528,6.04-17.141,12.896c-0.652,2.122-1.143,4.571-1.143,7.182v48.808h-14.038v-47.338
		c0-12.57-5.551-21.548-16.487-21.548c-8.814,0-15.508,7.183-17.793,14.365c-0.816,1.959-1.143,4.57-1.143,7.02v47.501h-14.039
		V218.922z"/>
	<path fill="#C7B9AC" d="M1319.75,239.653c0.326,19.425,12.569,27.424,27.098,27.424c10.284,0,16.65-1.796,21.874-4.081
		l2.611,10.284c-5.06,2.285-13.875,5.061-26.444,5.061c-24.322,0-38.851-16.161-38.851-39.994c0-23.832,14.038-42.441,37.055-42.441
		c25.955,0,32.648,22.527,32.648,37.054c0,2.938-0.164,5.061-0.49,6.693H1319.75z M1361.865,229.37
		c0.164-8.979-3.754-23.18-19.915-23.18c-14.691,0-20.895,13.223-22.037,23.18H1361.865z"/>
	<path fill="#C7B9AC" d="M1393.531,218.922c0-8.325-0.163-14.855-0.652-21.384h12.732l0.816,13.059h0.326
		c3.918-7.346,13.06-14.691,26.118-14.691c10.938,0,27.914,6.529,27.914,33.627v47.012h-14.365v-45.544
		c0-12.732-4.734-23.342-18.282-23.342c-9.305,0-16.65,6.693-19.263,14.691c-0.653,1.796-0.979,4.244-0.979,6.693v47.501h-14.365
		V218.922z"/>
	<path fill="#C7B9AC" d="M1500.777,178.602v18.936h20.568v10.937h-20.568v42.605c0,9.794,2.775,15.344,10.773,15.344
		c3.918,0,6.203-0.326,8.325-0.979l0.653,10.938c-2.775,0.979-7.183,1.959-12.732,1.959c-6.693,0-12.08-2.285-15.508-6.04
		c-3.918-4.407-5.55-11.427-5.55-20.731v-43.094h-12.243v-10.937h12.243v-14.691L1500.777,178.602z"/>
	<path fill="#C7B9AC" d="M1593.006,257.609c0,6.855,0.326,13.549,1.143,18.936h-12.896l-1.143-9.958h-0.489
		c-4.408,6.203-12.896,11.754-24.159,11.754c-15.998,0-24.16-11.264-24.16-22.69c0-19.099,16.978-29.545,47.503-29.382v-1.633
		c0-6.366-1.796-18.282-17.956-18.119c-7.509,0-15.182,2.122-20.731,5.876l-3.265-9.631c6.529-4.081,16.16-6.856,26.118-6.856
		c24.159,0,30.036,16.487,30.036,32.158V257.609z M1579.13,236.225c-15.671-0.326-33.464,2.449-33.464,17.793
		c0,9.468,6.203,13.713,13.386,13.713c10.447,0,17.14-6.53,19.426-13.223c0.489-1.633,0.652-3.265,0.652-4.57V236.225z"/>
	<path fill="#C7B9AC" d="M1616.183,160.646h14.365v115.899h-14.365V160.646z"/>
</g>
</svg>
