<?xml version="1.0" encoding="utf-8"?>
<!-- Generator: Adobe Illustrator 17.1.0, SVG Export Plug-In . SVG Version: 6.00 Build 0)  -->
<!DOCTYPE svg PUBLIC "-//W3C//DTD SVG 1.1//EN" "http://www.w3.org/Graphics/SVG/1.1/DTD/svg11.dtd">
<svg version="1.1" id="Layer_1" xmlns="http://www.w3.org/2000/svg" xmlns:xlink="http://www.w3.org/1999/xlink" x="0px" y="0px"
	 viewBox="0 0 612 792" enable-background="new 0 0 612 792" xml:space="preserve">
<g>
	<path fill="#C7B9AC" d="M492.483,422.828c0,0-0.012-0.409-0.034-1.201c-0.039-0.791-0.013-1.97-0.164-3.498
		c-0.216-3.051-0.703-7.559-2.293-13.061c-1.576-5.483-4.19-12.019-8.694-18.575c-4.452-6.548-10.755-13.155-18.98-18.296
		c-4.105-2.563-8.653-4.773-13.552-6.464c-4.904-1.68-10.18-2.726-15.62-3.17c-1.359-0.125-2.737-0.134-4.114-0.196
		c-1.371,0.037-2.795-0.019-4.139,0.092c-0.721,0.043-1.443,0.087-2.168,0.13c-0.716,0.052-1.38,0.151-2.073,0.222
		c-1.365,0.122-2.771,0.39-4.17,0.612c-5.583,1.037-11.132,2.815-16.388,5.369c-10.545,5.045-19.867,13.274-26.369,23.466
		c-3.245,5.099-5.788,10.676-7.506,16.514c-0.859,2.921-1.456,5.915-1.93,8.926c-0.188,1.514-0.393,3.026-0.47,4.552
		c-0.058,0.761-0.12,1.522-0.12,2.287l-0.052,2.177c0.059,1.602,0.032,3.366,0.181,4.756c0.073,1.449,0.277,2.972,0.466,4.488
		c0.467,3.012,1.081,6.002,1.937,8.923c1.713,5.839,4.269,11.409,7.509,16.508c6.508,10.184,15.827,18.406,26.365,23.454
		c5.257,2.545,10.8,4.33,16.382,5.366c1.401,0.222,2.793,0.49,4.195,0.615c0.7,0.072,1.397,0.172,2.095,0.223
		c0.7,0.043,1.398,0.086,2.093,0.128l0.99,0.061l1.078,0.01c0.717,0.007,1.433,0.014,2.146,0.021c1.368-0.063,2.7-0.068,4.062-0.193
		c5.438-0.442,10.712-1.49,15.617-3.163c4.897-1.69,9.445-3.899,13.55-6.46c8.224-5.139,14.53-11.741,18.983-18.288
		c4.505-6.555,7.122-13.09,8.697-18.573c1.591-5.502,2.077-10.01,2.294-13.061c0.151-1.527,0.126-2.706,0.164-3.497
		C492.471,423.237,492.483,422.828,492.483,422.828z M492.483,422.828c0,0-0.009,0.409-0.026,1.201
		c-0.033,0.792,0,1.971-0.141,3.499c-0.181,3.059-0.688,7.559-2.173,13.101c-0.695,2.783-1.756,5.786-3.084,8.98
		c-1.338,3.191-3.041,6.543-5.192,9.928c-4.281,6.763-10.35,13.728-18.469,19.535c-8.114,5.75-18.313,10.278-29.806,11.97
		c-1.427,0.232-2.929,0.35-4.401,0.514c-0.712,0.043-1.426,0.086-2.142,0.129l-1.076,0.065l-1.171,0.016
		c-0.747,0.006-1.496,0.012-2.247,0.019c-0.752-0.003-1.504-0.055-2.261-0.08c-1.516-0.032-3.03-0.21-4.56-0.346
		c-3.044-0.373-6.126-0.866-9.17-1.668c-1.538-0.347-3.039-0.85-4.568-1.301l-2.254-0.807c-0.758-0.261-1.504-0.555-2.241-0.876
		c-5.96-2.431-11.68-5.781-16.915-9.915c-5.201-4.173-9.904-9.146-13.777-14.793c-1.949-2.815-3.663-5.808-5.201-8.901
		c-1.52-3.105-2.757-6.353-3.823-9.662c-1.062-3.314-1.784-6.734-2.335-10.178c-0.23-1.727-0.47-3.446-0.578-5.266
		c-0.177-1.869-0.161-3.383-0.217-5.051l0.072-2.73c0.009-0.873,0.082-1.742,0.154-2.612c0.104-1.743,0.343-3.472,0.574-5.201
		c0.545-3.445,1.283-6.861,2.342-10.175c1.067-3.308,2.301-6.557,3.824-9.659c1.547-3.088,3.253-6.083,5.203-8.896
		c3.884-5.636,8.571-10.621,13.781-14.782c5.232-4.134,10.95-7.483,16.907-9.914c0.737-0.321,1.483-0.615,2.24-0.876
		c0.753-0.27,1.499-0.553,2.255-0.802c1.528-0.451,3.028-0.954,4.566-1.301c3.043-0.803,6.123-1.296,9.166-1.669
		c1.532-0.137,3.032-0.315,4.585-0.349c0.763-0.026,1.549-0.079,2.283-0.08c0.726,0.007,1.45,0.014,2.172,0.02
		c1.541-0.014,2.985,0.145,4.462,0.21c1.462,0.165,2.918,0.279,4.349,0.511c11.489,1.689,21.688,6.209,29.801,11.958
		c8.119,5.805,14.191,12.765,18.473,19.527c2.151,3.383,3.853,6.736,5.193,9.926c1.328,3.193,2.389,6.196,3.084,8.979
		c1.487,5.542,1.993,10.042,2.174,13.101c0.141,1.529,0.108,2.707,0.141,3.499C492.474,422.419,492.483,422.828,492.483,422.828z"/>
</g>
<g>
	<path fill="#C7B9AC" d="M260.299,422.828c0,0-0.012-0.409-0.034-1.201c-0.038-0.791-0.013-1.97-0.164-3.498
		c-0.216-3.051-0.703-7.559-2.293-13.061c-1.576-5.483-4.19-12.019-8.694-18.575c-4.452-6.548-10.755-13.155-18.98-18.296
		c-4.105-2.563-8.653-4.773-13.551-6.464c-4.904-1.68-10.18-2.726-15.62-3.17c-1.359-0.125-2.737-0.134-4.114-0.196
		c-1.371,0.037-2.795-0.019-4.139,0.092c-0.721,0.043-1.443,0.087-2.168,0.13c-0.716,0.052-1.38,0.151-2.073,0.222
		c-1.365,0.122-2.771,0.39-4.17,0.612c-5.583,1.037-11.132,2.815-16.388,5.369c-10.545,5.045-19.867,13.274-26.369,23.466
		c-3.245,5.099-5.788,10.676-7.506,16.514c-0.859,2.921-1.456,5.915-1.93,8.926c-0.188,1.514-0.393,3.026-0.47,4.552
		c-0.058,0.761-0.12,1.522-0.12,2.287l-0.052,2.177c0.059,1.602,0.032,3.366,0.181,4.756c0.073,1.449,0.277,2.972,0.466,4.488
		c0.467,3.012,1.081,6.002,1.937,8.923c1.713,5.839,4.269,11.409,7.509,16.508c6.508,10.184,15.827,18.406,26.364,23.454
		c5.257,2.545,10.8,4.33,16.382,5.366c1.401,0.222,2.793,0.49,4.195,0.615c0.7,0.072,1.397,0.172,2.095,0.223
		c0.7,0.043,1.398,0.086,2.093,0.128l0.99,0.061l1.078,0.01c0.717,0.007,1.433,0.014,2.146,0.021c1.368-0.063,2.7-0.068,4.062-0.193
		c5.438-0.442,10.712-1.49,15.617-3.163c4.897-1.69,9.445-3.899,13.55-6.46c8.224-5.139,14.53-11.741,18.983-18.288
		c4.505-6.555,7.122-13.09,8.697-18.573c1.591-5.502,2.077-10.01,2.294-13.061c0.151-1.527,0.126-2.706,0.164-3.497
		C260.287,423.237,260.299,422.828,260.299,422.828z M260.299,422.828c0,0-0.009,0.409-0.026,1.201
		c-0.033,0.792,0,1.971-0.141,3.499c-0.181,3.059-0.688,7.559-2.173,13.101c-0.695,2.783-1.756,5.786-3.084,8.98
		c-1.338,3.191-3.041,6.543-5.192,9.928c-4.281,6.763-10.35,13.728-18.469,19.535c-8.114,5.75-18.313,10.278-29.806,11.97
		c-1.427,0.232-2.929,0.35-4.401,0.514c-0.712,0.043-1.426,0.086-2.142,0.129l-1.076,0.065l-1.171,0.016
		c-0.747,0.006-1.496,0.012-2.247,0.019c-0.752-0.003-1.504-0.055-2.261-0.08c-1.516-0.032-3.03-0.21-4.56-0.346
		c-3.044-0.373-6.126-0.866-9.17-1.668c-1.538-0.347-3.039-0.85-4.568-1.301l-2.254-0.807c-0.758-0.261-1.504-0.555-2.241-0.876
		c-5.96-2.431-11.68-5.781-16.915-9.915c-5.201-4.173-9.904-9.146-13.777-14.793c-1.949-2.815-3.663-5.808-5.201-8.901
		c-1.52-3.105-2.757-6.353-3.823-9.662c-1.062-3.314-1.784-6.734-2.335-10.178c-0.23-1.727-0.47-3.446-0.578-5.266
		c-0.177-1.869-0.161-3.383-0.217-5.051l0.072-2.73c0.009-0.873,0.082-1.742,0.154-2.612c0.104-1.743,0.343-3.472,0.574-5.201
		c0.545-3.445,1.283-6.861,2.342-10.175c1.067-3.308,2.301-6.557,3.824-9.659c1.547-3.088,3.253-6.083,5.204-8.896
		c3.884-5.636,8.571-10.621,13.781-14.782c5.232-4.134,10.95-7.483,16.907-9.914c0.737-0.321,1.483-0.615,2.24-0.876
		c0.753-0.27,1.499-0.553,2.255-0.802c1.528-0.451,3.028-0.954,4.566-1.301c3.043-0.803,6.123-1.296,9.166-1.669
		c1.532-0.137,3.032-0.315,4.585-0.349c0.763-0.026,1.549-0.079,2.283-0.08c0.726,0.007,1.45,0.014,2.172,0.02
		c1.541-0.014,2.985,0.145,4.462,0.21c1.462,0.165,2.918,0.279,4.349,0.511c11.489,1.689,21.688,6.209,29.801,11.958
		c8.119,5.805,14.191,12.765,18.473,19.527c2.151,3.383,3.853,6.736,5.193,9.926c1.328,3.193,2.389,6.196,3.084,8.979
		c1.487,5.542,1.993,10.042,2.174,13.101c0.141,1.529,0.108,2.707,0.141,3.499C260.29,422.419,260.299,422.828,260.299,422.828z"/>
</g>
<g>
	<path fill="#C7B9AC" d="M260.299,422.828c-1.148-9.685-2.336-19.367-3.399-29.061c-1.064-9.694-2.176-19.384-3.162-29.086
		l-2.98-29.106L248,306.446c-0.881-9.714-1.796-19.427-2.58-29.151c-0.796-9.724-1.56-19.452-2.267-29.19l-1.011-14.616
		c-0.311-4.876-0.627-9.755-0.851-14.645c-0.233-4.891-0.431-9.788-0.539-14.718c-0.043-2.471-0.08-4.94-0.039-7.456
		c0.023-1.261,0.06-2.531,0.138-3.84c0.046-0.666,0.098-1.329,0.179-2.043l0.155-1.113c0.084-0.436,0.199-0.915,0.313-1.367
		l0.422-1.677l1.754-0.806c9.254-4.253,18.826-7.177,28.45-9.608c9.629-2.429,19.363-4.189,29.112-5.684
		c19.508-2.936,39.133-4.59,58.786-5.359c9.829-0.344,19.666-0.426,29.506-0.258c9.839,0.165,19.682,0.605,29.521,1.39
		c9.836,0.812,19.681,1.896,29.486,3.796c4.903,0.943,9.797,2.104,14.673,3.617c4.863,1.607,9.757,3.342,14.463,6.79l1.575,1.154
		l0.044,2.035l0.63,29.154l0.148,7.29l0.292,7.293l0.61,14.588l0.61,14.591c0.179,4.865,0.545,9.724,0.809,14.586l1.644,29.182
		l1.955,29.173c0.287,4.866,0.642,9.727,0.999,14.588l1.058,14.586l2.174,29.174l2.263,29.178l-2.048-14.492
		c-0.681-4.832-1.353-9.665-1.949-14.506l-1.854-14.519c-0.641-4.838-1.194-9.685-1.749-14.532l-1.677-14.542
		c-0.564-4.847-1.126-9.695-1.619-14.55l-2.948-29.133l-1.304-14.586l-1.252-14.593c-0.381-4.868-0.865-9.726-1.162-14.602
		l-0.964-14.623l-0.964-14.626l-0.469-7.315l-0.274-7.331l-1.059-29.334l1.619,3.189c-1.588-1.151-3.529-2.166-5.586-3.035
		c-2.065-0.868-4.245-1.614-6.464-2.291c-4.467-1.315-9.099-2.351-13.793-3.182c-9.395-1.653-18.977-2.756-28.598-3.475
		c-9.625-0.721-19.296-1.109-28.975-1.224c-9.68-0.124-19.369,0.019-29.049,0.383c-19.359,0.664-38.707,2.205-57.826,4.99
		c-9.556,1.394-19.044,3.152-28.39,5.321c-9.323,2.206-18.54,4.906-27.092,8.692l2.176-2.483c-0.022,0.143-0.055,0.254-0.095,0.415
		l-0.105,0.696c-0.063,0.496-0.116,1.048-0.161,1.596c-0.083,1.124-0.135,2.289-0.174,3.464c-0.073,2.357-0.073,4.763-0.065,7.166
		c0.035,4.817,0.161,9.664,0.322,14.513l0.537,14.567l0.66,14.582c0.473,9.723,1.005,19.449,1.568,29.175l1.668,29.185l3.518,58.38
		l1.74,29.199L260.299,422.828z"/>
</g>
<g>
	<path fill="#C7B9AC" d="M243.671,227.408c2.165-3.782,4.714-7.342,7.407-10.785c2.685-3.456,5.643-6.699,8.738-9.815
		c3.112-3.099,6.391-6.055,9.903-8.737c3.504-2.689,7.201-5.152,11.079-7.328c3.879-2.173,7.935-4.071,12.147-5.594
		c4.217-1.501,8.567-2.702,13.015-3.432c4.518-0.721,8.793-1.069,13.125-1.55c4.336-0.445,8.673-0.897,13.014-1.27
		c4.339-0.403,8.686-0.755,13.031-1.117c4.349-0.34,8.698-0.681,13.055-0.968c4.354-0.313,8.717-0.559,13.082-0.789
		c4.368-0.188,8.738-0.368,13.117-0.468c2.187-0.074,4.379-0.104,6.572-0.126c2.193-0.021,4.383-0.074,6.582-0.042
		c2.198,0.021,4.393,0.01,6.594,0.057l6.608,0.187l6.626,0.357c2.211,0.13,4.43,0.377,6.644,0.577
		c2.215,0.211,4.443,0.574,6.664,0.857c2.225,0.333,4.461,0.812,6.691,1.215l0.589,0.107l0.662,0.385
		c7.06,4.107,14.175,8.094,21.32,12.291c1.787,1.06,3.575,2.14,5.365,3.271c0.895,0.562,1.791,1.173,2.686,1.758
		c0.896,0.614,1.793,1.263,2.688,1.918c0.896,0.735,1.791,1.367,2.68,2.231c0.893,0.766,1.758,1.751,2.601,2.744
		c0.406,0.569,0.803,1.147,1.19,1.729c0.362,0.633,0.683,1.332,1,2.006c0.272,0.715,0.474,1.483,0.678,2.23
		c0.127,0.759,0.202,1.53,0.271,2.296l0.559,6.221l-6.237-1.772c-9.428-2.679-19.046-4.835-28.738-6.638
		c-4.847-0.9-9.716-1.711-14.6-2.438c-4.887-0.707-9.777-1.417-14.685-2.008c-9.812-1.211-19.673-2.094-29.55-2.718
		c-4.94-0.303-9.884-0.533-14.83-0.742c-4.947-0.193-9.897-0.322-14.847-0.357c-9.902-0.086-19.804,0.174-29.688,0.705
		c-4.941,0.278-9.877,0.654-14.799,1.149c-4.924,0.485-9.826,1.133-14.717,1.853c-9.769,1.481-19.476,3.533-28.807,6.74
		c-4.665,1.597-9.206,3.562-13.464,6.049C250.477,220.161,246.498,223.265,243.671,227.408z M243.671,227.408
		c2.398-4.419,6.229-7.924,10.31-10.863c4.153-2.883,8.667-5.214,13.306-7.196c4.634-2.01,9.42-3.634,14.257-5.042
		c4.837-1.413,9.732-2.614,14.656-3.661c4.922-1.061,9.887-1.886,14.86-2.635c4.975-0.738,9.965-1.355,14.965-1.874
		c5-0.523,10.009-0.941,15.026-1.22c5.016-0.294,10.036-0.502,15.058-0.633c5.022-0.135,10.046-0.175,15.07-0.149
		c5.024,0.016,10.048,0.141,15.068,0.357c10.04,0.428,20.073,1.12,30.082,2.147c5.003,0.521,10.007,1.072,14.992,1.788
		c4.986,0.708,9.962,1.502,14.926,2.389c9.927,1.778,19.811,3.919,29.59,6.626l-5.678,4.448c-0.056-0.25-0.073-0.501-0.097-0.752
		c-0.101-0.229-0.142-0.461-0.225-0.703c-0.146-0.239-0.24-0.48-0.378-0.737c-0.196-0.26-0.382-0.524-0.558-0.797
		c-0.5-0.551-0.978-1.116-1.64-1.69c-0.567-0.582-1.35-1.137-2.028-1.711c-0.755-0.556-1.513-1.115-2.301-1.664
		c-0.816-0.539-1.606-1.09-2.443-1.622c-1.665-1.068-3.375-2.117-5.104-3.158c-6.952-4.148-14.101-8.219-21.173-12.397l1.251,0.492
		c-2.047-0.377-4.063-0.831-6.136-1.155c-2.091-0.276-4.156-0.634-6.269-0.848c-2.117-0.197-4.219-0.455-6.345-0.634l-6.393-0.475
		l-6.428-0.312c-2.146-0.089-4.3-0.123-6.45-0.187c-2.149-0.075-4.308-0.067-6.464-0.09c-2.156-0.023-4.313-0.037-6.473-0.008
		c-4.318,0.011-8.641,0.101-12.966,0.199c-4.326,0.121-8.655,0.191-12.985,0.365c-4.33,0.139-8.662,0.332-12.995,0.524
		c-4.332,0.214-8.666,0.419-13,0.674l-13.002,0.725c-4.331,0.273-8.747,0.441-12.847,0.904c-4.169,0.483-8.288,1.417-12.324,2.643
		c-4.037,1.227-7.997,2.771-11.823,4.632c-3.828,1.857-7.527,4.014-11.075,6.414c-3.542,2.409-6.973,5.011-10.228,7.837
		c-3.26,2.82-6.363,5.836-9.314,9.005C248.995,220.535,246.199,223.865,243.671,227.408z"/>
</g>
<g>
	<path fill="#C7B9AC" d="M425.816,489.494c0,0-1.055,1.875-3.398,5.162c-2.357,3.269-5.959,7.998-11.207,13.447
		c-5.237,5.44-12.053,11.71-20.854,17.641c-8.765,5.934-19.502,11.633-32.123,15.435c-6.292,1.923-13.028,3.387-20.091,4.261
		c-7.064,0.874-14.451,1.072-22.003,0.647c-3.774-0.202-7.6-0.625-11.425-1.133c-3.779-0.52-7.603-1.105-11.45-1.743
		c-7.704-1.253-15.507-2.836-23.417-4.502c-7.908-1.68-15.911-3.505-23.988-5.407c-4.033-0.962-8.091-1.93-12.17-2.902
		c-4.064-1.008-8.148-2.021-12.248-3.037c-16.386-4.057-33-8.199-49.674-11.478c-8.324-1.675-16.672-3.13-24.97-4.037
		c-8.277-0.882-16.585-1.285-24.374-0.238c-3.877,0.529-7.601,1.471-10.849,2.986c-1.626,0.751-3.12,1.658-4.438,2.723
		c-0.659,0.533-1.281,1.099-1.847,1.713c-0.622,0.693-0.816,0.99-1.137,1.573c-0.541,1.049-0.715,2.158-0.526,3.527
		c0.18,1.356,0.782,2.884,1.595,4.386c1.67,3.026,4.153,5.935,6.823,8.62c5.403,5.392,11.652,10.033,17.876,14.373
		c6.263,4.315,12.659,8.223,18.998,11.842c6.338,3.627,12.65,6.916,18.797,10.026c6.151,3.105,12.175,5.956,18.014,8.571
		c11.692,5.2,22.602,9.565,32.425,12.991c9.83,3.399,18.546,5.96,25.845,7.508c7.293,1.551,13.162,2.154,17.15,1.884
		c1.992-0.116,3.503-0.419,4.495-0.71c0.493-0.153,0.867-0.279,1.108-0.385c0.245-0.099,0.369-0.15,0.369-0.15
		s-0.12,0.061-0.355,0.181c-0.233,0.127-0.595,0.285-1.079,0.483c-0.973,0.375-2.474,0.828-4.489,1.093
		c-4.023,0.561-10.034,0.477-17.514-0.645c-7.485-1.092-16.47-3.056-26.569-5.997c-10.107-2.916-21.363-6.71-33.387-11.519
		c-12.029-4.792-24.886-10.47-38.036-17.472c-6.578-3.494-13.243-7.291-19.867-11.562c-6.622-4.279-13.199-9.029-19.323-14.882
		c-3.033-2.963-5.989-6.188-8.368-10.278c-1.158-2.062-2.2-4.365-2.648-7.086c-0.476-2.682-0.153-5.868,1.188-8.521
		c0.599-1.272,1.627-2.671,2.398-3.516c0.825-0.928,1.727-1.784,2.671-2.578c1.891-1.589,3.975-2.894,6.128-3.939
		c4.322-2.092,8.866-3.184,13.338-3.838c8.976-1.249,17.815-0.816,26.514,0.044c8.703,0.897,17.288,2.345,25.795,4.001
		c16.987,3.442,33.663,7.72,50.043,11.879c8.173,2.097,16.281,4.178,24.292,6.233c8.003,2.042,15.913,4,23.711,5.808
		c7.795,1.822,15.489,3.435,23.021,4.945c3.77,0.745,7.499,1.433,11.2,2.058c3.658,0.598,7.254,1.109,10.838,1.412
		c14.318,1.272,28.027-0.03,40.208-3.181c6.096-1.57,11.801-3.613,17.091-5.89c5.3-2.262,10.156-4.827,14.582-7.476
		c8.839-5.335,15.948-10.997,21.457-16.022c5.496-5.049,9.474-9.404,12.047-12.484C424.589,491.261,425.816,489.494,425.816,489.494
		z"/>
</g>
<rect x="336.616" y="-69.525" fill="#C7B9AC" width="57.847" height="56"/>
<rect x="259.171" y="-69.525" fill="#DBD9D6" width="57.847" height="56"/>
<rect x="105.171" y="-69.525" fill="#392F2C" width="57.847" height="56"/>
<rect x="184.595" y="-68.443" fill="#7C6755" width="57.847" height="56"/>
<rect x="404.288" y="-68.443" fill="#E0A36C" width="57.847" height="56"/>
<g>
	<path fill="#C7B9AC" d="M268.221,609.365c0,0,1.86-0.007,5.114-0.018c1.627-0.013,3.603-0.028,5.87-0.046
		c2.267-0.035,4.824-0.05,7.614-0.127c5.58-0.13,12.089-0.282,19.063-0.445c1.744-0.041,3.516-0.082,5.311-0.124l1.35-0.025
		l0.678-0.009c-0.107,0.001,0.28-0.021,0.148-0.032c-0.04,0.01-0.013-0.008,0.012-0.017c0.036-0.034,0.062-0.074,0.078-0.115
		c0.004-0.022,0.011-0.042,0.007-0.067c0.008-0.007,0-0.198,0-0.288l-0.018-1.37c-0.03-1.831-0.047-3.676-0.048-5.529l-0.01-2.783
		l-0.002-0.697l-0.001-0.349c0.009,0.185,0,0.026,0.001,0.056l-0.005-0.043l-0.009-0.087c-0.005-0.094-0.017-0.019-0.012-0.009
		c0.016,0.069-0.009-0.023-0.029-0.011c-0.022-0.011-0.039-0.014-0.064-0.02c-3.72-0.032-7.439-0.024-11.1-0.097
		c-3.661-0.047-7.265-0.134-10.751-0.235c-6.974-0.186-13.483-0.359-19.062-0.507c-1.395-0.032-2.731-0.063-4.003-0.093
		c-0.603-0.06-1.114,0.412-1.112,0.978c-0.01,0.602-0.02,1.187-0.029,1.753c-0.025,2.267-0.047,4.243-0.065,5.87
		c-0.005,0.814-0.01,1.54-0.014,2.172c0.022,0.628-0.07,1.178,0.064,1.594c0.158,0.411,0.486,0.595,0.691,0.66
		C268.1,609.375,268.223,609.355,268.221,609.365z M268.221,609.365c0.002-0.01-0.12,0.012-0.335-0.056
		c-0.207-0.063-0.538-0.244-0.703-0.659c-0.14-0.421-0.053-0.971-0.081-1.599c-0.002-0.632-0.005-1.359-0.008-2.172
		c-0.013-1.627-0.029-3.603-0.047-5.87c-0.008-0.567-0.016-1.151-0.024-1.754c-0.008-0.329,0.129-0.671,0.381-0.905
		c0.243-0.244,0.626-0.356,0.948-0.345c1.271-0.026,2.608-0.052,4.003-0.081c5.58-0.131,12.089-0.284,19.063-0.448
		c3.487-0.09,7.091-0.166,10.752-0.202c3.662-0.062,7.381-0.042,11.101-0.063c0.896,0.021,1.73,0.569,2.005,1.514
		c0.036,0.121,0.073,0.305,0.069,0.328l0.021,0.273l-0.002,0.349l-0.005,0.697l-0.018,2.783c-0.006,1.853-0.029,3.698-0.065,5.528
		l-0.023,1.37c-0.006,0.137,0.005,0.175-0.014,0.394c-0.011,0.206-0.06,0.405-0.134,0.598c-0.155,0.38-0.422,0.706-0.76,0.931
		c-0.174,0.1-0.344,0.198-0.607,0.258c-0.344,0.075-0.192,0.036-0.522,0.062l-0.678-0.011l-1.35-0.029
		c-1.794-0.047-3.567-0.094-5.31-0.14c-6.974-0.184-13.483-0.357-19.062-0.504c-2.79-0.086-5.347-0.109-7.613-0.151
		c-2.267-0.025-4.243-0.046-5.87-0.064C270.081,609.377,268.221,609.365,268.221,609.365z"/>
</g>
<g>
	<path fill="#C7B9AC" d="M332.044,605.974c-2.947,0.31-5.894,0.493-8.841,0.641c-2.947,0.142-5.894,0.224-8.841,0.278l-0.937,0.017
		l-0.007-0.965l-0.044-5.779l-0.008-1.007l1.009,0.009l4.42,0.041c1.473,0.005,2.947,0.066,4.42,0.097
		c2.947,0.08,5.893,0.22,8.84,0.404l0.517,0.032l-0.033,0.454C332.4,602.122,332.265,604.048,332.044,605.974z M332.044,605.974
		c-0.215-1.927-0.344-3.853-0.476-5.78l0.484,0.486c-2.947,0.174-5.894,0.306-8.841,0.377c-1.473,0.026-2.947,0.083-4.42,0.083
		l-4.42,0.027l1.001-0.998l-0.062,5.779l-0.945-0.948c2.947,0.063,5.893,0.154,8.84,0.305
		C326.151,605.463,329.098,605.655,332.044,605.974z"/>
</g>
<g>
	<path fill="#C7B9AC" d="M337.624,605.983c-0.631,0.163-1.263,0.3-1.894,0.4c-0.631,0.118-1.262,0.185-1.894,0.274l-0.604,0.085
		l-0.074-0.766l-0.139-1.445c-0.046-0.482-0.06-0.963-0.092-1.445c-0.069-0.963-0.071-1.926-0.08-2.89l-0.01-1.007l1.011,0.009
		c0.631,0.006,1.262,0.011,1.893,0.036c0.631,0.019,1.262,0.071,1.893,0.105l0.899,0.048l-0.035,0.817
		c-0.021,0.482-0.088,0.963-0.13,1.445c-0.04,0.482-0.112,0.963-0.178,1.445C338.052,604.057,337.886,605.02,337.624,605.983z
		 M337.624,605.983c-0.259-0.964-0.422-1.927-0.556-2.891c-0.065-0.482-0.135-0.963-0.174-1.445
		c-0.04-0.482-0.106-0.963-0.126-1.445l0.863,0.866c-0.631,0.032-1.262,0.082-1.893,0.099c-0.631,0.023-1.262,0.026-1.893,0.03
		l1.001-0.998c-0.012,0.963-0.017,1.926-0.089,2.889c-0.033,0.482-0.049,0.963-0.096,1.445l-0.144,1.445l-0.678-0.68
		c0.631,0.091,1.262,0.159,1.893,0.279C336.363,605.679,336.993,605.818,337.624,605.983z"/>
</g>
<g>
	<path fill="#C7B9AC" d="M342.609,604.515c0,0-0.22,0.132-0.604,0.363c-0.189,0.121-0.419,0.267-0.674,0.449
		c-0.285,0.178-0.479,0.394-0.906,0.635c-0.035,0.056-0.422,0.029-0.503-0.108c-0.081-0.057-0.131-0.135-0.161-0.235
		c-0.017-0.048-0.032-0.097-0.043-0.147l-0.014-0.081c-0.04-0.207-0.082-0.421-0.125-0.641c-0.085-0.44-0.174-0.904-0.266-1.385
		c-0.08-0.48-0.166-0.977-0.211-1.481c-0.025-0.252-0.045-0.506-0.056-0.761c-0.008-0.128-0.013-0.255-0.014-0.383l0-0.024
		l0.036-0.267l0.001-0.006l0.003-0.012l0.012-0.047c0.013-0.042,0.005-0.036,0.034-0.119c0.105-0.334,0.516-0.719,0.73-0.753
		c0.483-0.286,1.29,0.141,1.204,0.12l0.331,0.193c0.219,0.132,0.434,0.268,0.643,0.411c0.429,0.286,0.804,0.572,1.215,0.909
		c0.369,0.321,0.725,0.632,1.063,0.927c0.169,0.148,0.333,0.292,0.491,0.431l0.06,0.05l0.094,0.075l0.022,0.032
		c0.034,0.058,0.049,0.049,0.098,0.16c0.112,0.243,0.035,0.427-0.052,0.556c-0.059,0.058-0.126,0.109-0.189,0.15
		c-0.05,0.023-0.091,0.033-0.136,0.05c-0.087,0.033-0.172,0.065-0.254,0.096c-0.163,0.066-0.318,0.129-0.464,0.188
		c-0.29,0.12-0.535,0.238-0.738,0.335C342.837,604.398,342.609,604.515,342.609,604.515z M342.609,604.515
		c0,0,0.222-0.128,0.61-0.352c0.191-0.118,0.424-0.26,0.682-0.438c0.129-0.09,0.265-0.186,0.41-0.287
		c0.071-0.052,0.144-0.106,0.219-0.161c0.035-0.028,0.079-0.058,0.107-0.086c0.004-0.025,0.006-0.04,0.016-0.048
		c0.002-0.041-0.042-0.057-0.01-0.005c0.032,0.011-0.062-0.049-0.087-0.07l-0.031-0.023c-0.015-0.012,0.119,0.093,0.06,0.048
		l-0.005-0.002l-0.009-0.003l-0.018-0.007l-0.073-0.028c-0.2-0.068-0.406-0.139-0.619-0.211c-0.424-0.146-0.871-0.301-1.333-0.461
		c-0.416-0.152-0.926-0.315-1.38-0.515c-0.234-0.096-0.466-0.203-0.696-0.313l-0.343-0.171c-0.046-0.033-0.187-0.08,0.038,0.015
		c0.153,0.03,0.298,0.029,0.444-0.026c0.035-0.016,0.066-0.035,0.095-0.057c0.052-0.027,0.105-0.064,0.154-0.112
		c0.098-0.095,0.166-0.232,0.185-0.353c0.001-0.027-0.015,0.045-0.022,0.063l-0.013,0.046l-0.003,0.011l-0.002,0.006
		c-0.032,0.235,0.042-0.314,0.034-0.256l0,0.024c-0.001,0.128-0.006,0.256-0.015,0.383c-0.012,0.255-0.032,0.509-0.058,0.761
		c-0.047,0.504-0.135,1-0.216,1.48c-0.094,0.48-0.184,0.944-0.27,1.384c-0.044,0.22-0.086,0.434-0.127,0.641l-0.012,0.073
		l-0.003,0.001c-0.015,0.005-0.024,0.017-0.018,0.02c-0.003,0.016-0.002,0.027-0.021,0.025c-0.026,0.013-0.025,0.055,0.043,0.035
		l0.072-0.006c-0.01,0.007,0.074-0.02-0.014,0.015l0.034-0.012l0.133-0.049c0.086-0.035,0.17-0.068,0.252-0.101
		c0.162-0.069,0.316-0.135,0.46-0.197c0.288-0.126,0.531-0.249,0.732-0.349C342.383,604.636,342.609,604.515,342.609,604.515z"/>
</g>
<g>
	<path fill="#C7B9AC" d="M492.993,422.828c0,0-0.066-1.207-0.191-3.47c-0.046-0.564-0.033-1.201-0.137-1.889
		c-0.108-0.688-0.226-1.438-0.354-2.249c-0.141-0.808-0.235-1.688-0.44-2.605c-0.244-0.909-0.503-1.875-0.777-2.895
		c-1.202-4.026-3.052-8.893-6.455-13.685c-3.322-4.8-7.991-9.649-14.081-13.363c-0.778-0.431-1.564-0.866-2.358-1.305
		c-0.794-0.435-1.574-0.91-2.439-1.242c-1.7-0.716-3.378-1.549-5.221-2.053c-0.907-0.283-1.816-0.582-2.74-0.847
		c-0.943-0.194-1.894-0.389-2.852-0.586c-0.477-0.099-0.955-0.198-1.435-0.297c-0.481-0.094-0.978-0.112-1.468-0.172
		c-0.98-0.101-1.968-0.203-2.962-0.306c-0.99-0.109-2.005-0.03-3.011-0.056l-1.516-0.003l-0.76-0.002l-0.679,0.067
		c-2.099,0.231-4.365,0.327-6.257,0.832c-0.988,0.228-1.971,0.356-2.967,0.656c-0.994,0.309-1.992,0.62-2.995,0.932
		c-1.016,0.261-1.963,0.745-2.94,1.14l-1.461,0.609l-0.732,0.303l-0.701,0.377c-0.934,0.499-1.872,1-2.813,1.503
		c-0.934,0.511-1.789,1.168-2.691,1.743l-1.338,0.889c-0.425,0.328-0.834,0.679-1.253,1.017c-0.822,0.695-1.693,1.331-2.481,2.068
		c-3.196,2.914-5.957,6.303-8.347,9.947c-0.543,0.944-1.086,1.891-1.631,2.839c-0.134,0.238-0.28,0.469-0.404,0.712l-0.335,0.749
		l-0.675,1.495l-0.692,1.487c-0.216,0.502-0.367,1.031-0.556,1.544c-0.343,1.039-0.758,2.056-1.054,3.11
		c-1.173,4.23-1.755,8.605-1.834,13.008l0.165,3.395l0.042,0.905c0.009,0.309,0.026,0.607,0.078,0.847l0.243,1.545l0.229,1.547
		l0.11,0.775l0.201,0.796c0.275,1.061,0.521,2.129,0.777,3.195c0.295,1.054,0.71,2.07,1.053,3.109
		c0.188,0.513,0.339,1.042,0.555,1.544l0.693,1.486l0.679,1.492l0.335,0.748c0.124,0.243,0.27,0.474,0.404,0.711
		c0.544,0.948,1.088,1.894,1.63,2.838c2.401,3.633,5.145,7.033,8.351,9.935c0.788,0.736,1.657,1.373,2.479,2.067
		c0.418,0.338,0.827,0.689,1.252,1.017l1.337,0.888c0.901,0.574,1.756,1.231,2.689,1.742c0.941,0.503,1.878,1.004,2.811,1.503
		c3.825,1.783,7.777,3.342,11.863,4.025c2.017,0.511,4.072,0.588,6.099,0.822l0.38,0.039l0.19,0.019l0.095,0.01
		c0.056,0.004-0.151,0.007-0.016,0.005l0.797-0.003c0.53-0.002,1.059-0.003,1.586-0.005c0.527-0.002,1.052-0.003,1.576-0.005
		c0.521-0.005,1.059,0.016,1.526-0.058c0.972-0.101,1.937-0.201,2.895-0.301c0.481-0.059,0.963-0.074,1.443-0.167
		c0.48-0.099,0.958-0.198,1.435-0.296c0.958-0.196,1.908-0.391,2.851-0.585c0.924-0.264,1.831-0.566,2.74-0.843
		c1.842-0.503,3.52-1.336,5.22-2.051c0.865-0.331,1.645-0.807,2.439-1.241c0.794-0.439,1.58-0.874,2.358-1.304
		c6.09-3.712,10.76-8.556,14.084-13.355c3.403-4.791,5.256-9.656,6.457-13.683c0.274-1.02,0.534-1.986,0.778-2.895
		c0.206-0.917,0.3-1.798,0.441-2.606c0.128-0.811,0.246-1.562,0.354-2.25c0.104-0.688,0.091-1.325,0.137-1.889
		C492.927,424.034,492.993,422.828,492.993,422.828z M492.993,422.828c0,0-0.056,1.208-0.16,3.472
		c-0.041,0.565-0.022,1.202-0.12,1.892c-0.102,0.689-0.213,1.442-0.334,2.255c-0.134,0.811-0.22,1.694-0.418,2.615
		c-0.225,0.916-0.464,1.889-0.717,2.918c-1.102,4.071-2.84,8.999-6.036,14.017c-3.151,5.015-7.586,10.222-13.57,14.603
		c-0.772,0.511-1.552,1.028-2.339,1.549c-0.792,0.518-1.573,1.079-2.445,1.498c-1.713,0.89-3.422,1.904-5.316,2.593
		c-0.93,0.384-1.864,0.794-2.821,1.166c-0.982,0.302-1.972,0.605-2.969,0.912c-0.501,0.153-1.004,0.306-1.509,0.46
		c-0.508,0.148-1.048,0.224-1.575,0.339c-1.067,0.21-2.142,0.421-3.224,0.633c-0.555,0.128-1.063,0.155-1.585,0.21
		c-0.521,0.051-1.044,0.102-1.568,0.154c-0.524,0.051-1.051,0.103-1.578,0.155l-0.793,0.078c0.069,0-0.204,0.012-0.215,0.01
		l-0.104,0l-0.208-0.001l-0.417-0.001c-2.227-0.035-4.507,0.077-6.784-0.264c-4.592-0.361-9.21-1.582-13.714-3.31
		c-1.109-0.485-2.222-0.971-3.34-1.46c-1.113-0.504-2.151-1.161-3.238-1.744l-1.619-0.908c-0.519-0.336-1.023-0.698-1.537-1.048
		c-1.013-0.72-2.076-1.391-3.059-2.17c-0.955-0.816-1.914-1.635-2.875-2.455c-0.238-0.209-0.484-0.41-0.715-0.626l-0.661-0.684
		l-1.323-1.375l-1.325-1.384c-0.434-0.469-0.807-0.991-1.214-1.487c-0.778-1.018-1.609-2.007-2.343-3.067
		c-2.95-4.247-5.213-8.999-6.865-13.983l-1.023-3.808l-0.244-0.958l-0.163-1.015l-0.317-2.034l-0.304-2.037
		c-0.062-0.354-0.081-0.659-0.093-0.955l-0.05-0.905l-0.201-3.848l0.211-3.947c0.055-0.656,0.036-1.318,0.154-1.968l0.302-1.953
		l0.308-1.951l0.156-0.974l0.245-0.956l1.03-3.806c1.646-4.986,3.922-9.73,6.868-13.976c0.735-1.058,1.558-2.052,2.346-3.063
		c0.407-0.496,0.779-1.017,1.213-1.487l1.324-1.384l1.322-1.374l0.66-0.683c0.231-0.216,0.477-0.417,0.714-0.626
		c0.955-0.83,1.916-1.647,2.878-2.45c0.982-0.779,2.045-1.449,3.057-2.169c0.514-0.35,1.017-0.712,1.536-1.048l1.618-0.907
		c1.087-0.583,2.124-1.24,3.236-1.744c1.117-0.489,2.23-0.975,3.338-1.46l0.828-0.36l0.858-0.282l1.711-0.552
		c1.144-0.344,2.253-0.769,3.424-0.966c1.153-0.242,2.3-0.483,3.442-0.723c1.144-0.227,2.358-0.29,3.517-0.434
		c2.402-0.347,4.472-0.216,6.626-0.253l0.915,0.002l0.83,0.078c0.551,0.052,1.101,0.105,1.648,0.157
		c1.091,0.129,2.183,0.155,3.245,0.37c1.06,0.211,2.112,0.42,3.157,0.628c0.519,0.114,1.044,0.186,1.55,0.334
		c0.505,0.154,1.007,0.307,1.508,0.46c0.997,0.306,1.987,0.609,2.968,0.911c0.957,0.371,1.889,0.784,2.821,1.162
		c1.894,0.687,3.603,1.701,5.315,2.59c0.872,0.419,1.653,0.979,2.445,1.497c0.788,0.521,1.567,1.038,2.339,1.548
		c5.984,4.378,10.421,9.581,13.573,14.595c3.196,5.017,4.937,9.944,6.038,14.015c0.253,1.028,0.492,2.002,0.718,2.917
		c0.198,0.921,0.284,1.805,0.418,2.615c0.12,0.813,0.232,1.566,0.334,2.255c0.098,0.69,0.079,1.326,0.12,1.891
		C492.938,421.62,492.993,422.828,492.993,422.828z"/>
</g>
<g>
	<path fill="#C7B9AC" d="M242.897,422.828c0,0-0.066-1.207-0.191-3.47c-0.046-0.564-0.033-1.201-0.137-1.889
		c-0.108-0.688-0.226-1.438-0.354-2.249c-0.141-0.808-0.235-1.688-0.44-2.605c-0.244-0.909-0.503-1.875-0.777-2.895
		c-1.202-4.026-3.052-8.893-6.455-13.685c-3.322-4.8-7.991-9.649-14.081-13.363c-0.778-0.431-1.564-0.866-2.358-1.305
		c-0.794-0.435-1.574-0.91-2.439-1.242c-1.7-0.716-3.378-1.549-5.221-2.053c-0.907-0.283-1.816-0.582-2.74-0.847
		c-0.943-0.194-1.894-0.389-2.852-0.586c-0.477-0.099-0.955-0.198-1.435-0.297c-0.481-0.094-0.978-0.112-1.468-0.172
		c-0.98-0.101-1.968-0.203-2.962-0.306c-0.99-0.109-2.005-0.03-3.011-0.056l-1.516-0.003l-0.76-0.002l-0.679,0.067
		c-2.099,0.231-4.365,0.327-6.257,0.832c-0.988,0.228-1.971,0.356-2.967,0.656c-0.994,0.309-1.992,0.62-2.995,0.932
		c-1.016,0.261-1.963,0.745-2.94,1.14l-1.461,0.609l-0.732,0.303l-0.701,0.377c-0.934,0.499-1.872,1-2.813,1.503
		c-0.934,0.511-1.789,1.168-2.691,1.743l-1.338,0.889c-0.425,0.328-0.834,0.679-1.253,1.017c-0.822,0.695-1.693,1.331-2.481,2.068
		c-3.196,2.914-5.957,6.303-8.347,9.947c-0.543,0.944-1.086,1.891-1.631,2.839c-0.134,0.238-0.28,0.469-0.404,0.712l-0.335,0.749
		L153,403.678l-0.692,1.487c-0.216,0.502-0.367,1.031-0.555,1.544c-0.343,1.039-0.758,2.056-1.054,3.11
		c-1.173,4.23-1.755,8.605-1.834,13.008l0.165,3.395l0.042,0.905c0.009,0.309,0.026,0.607,0.078,0.847l0.243,1.545l0.229,1.547
		l0.11,0.775l0.201,0.796c0.275,1.061,0.521,2.129,0.777,3.195c0.295,1.054,0.71,2.07,1.053,3.109
		c0.188,0.513,0.339,1.042,0.555,1.544l0.693,1.486l0.679,1.492l0.335,0.748c0.124,0.243,0.27,0.474,0.404,0.711
		c0.544,0.948,1.088,1.894,1.63,2.838c2.401,3.633,5.145,7.033,8.351,9.935c0.788,0.736,1.657,1.373,2.479,2.067
		c0.418,0.338,0.827,0.689,1.252,1.017l1.337,0.888c0.901,0.574,1.756,1.231,2.689,1.742c0.941,0.503,1.878,1.004,2.811,1.503
		c3.825,1.783,7.777,3.342,11.863,4.025c2.017,0.511,4.072,0.588,6.099,0.822l0.38,0.039l0.19,0.019l0.095,0.01
		c0.056,0.004-0.151,0.007-0.016,0.005l0.797-0.003c0.53-0.002,1.059-0.003,1.586-0.005c0.527-0.002,1.052-0.003,1.576-0.005
		c0.521-0.005,1.059,0.016,1.526-0.058c0.972-0.101,1.937-0.201,2.895-0.301c0.481-0.059,0.963-0.074,1.443-0.167
		c0.48-0.099,0.958-0.198,1.435-0.296c0.958-0.196,1.908-0.391,2.851-0.585c0.924-0.264,1.831-0.566,2.74-0.843
		c1.842-0.503,3.52-1.336,5.22-2.051c0.865-0.331,1.645-0.807,2.439-1.241c0.794-0.439,1.58-0.874,2.358-1.304
		c6.09-3.712,10.76-8.556,14.084-13.355c3.403-4.791,5.256-9.656,6.457-13.683c0.274-1.02,0.533-1.986,0.778-2.895
		c0.206-0.917,0.3-1.798,0.441-2.606c0.128-0.811,0.246-1.562,0.354-2.25c0.104-0.688,0.091-1.325,0.137-1.889
		C242.831,424.034,242.897,422.828,242.897,422.828z M242.897,422.828c0,0-0.056,1.208-0.16,3.472
		c-0.041,0.565-0.022,1.202-0.12,1.892c-0.102,0.689-0.213,1.442-0.334,2.255c-0.134,0.811-0.22,1.694-0.418,2.615
		c-0.225,0.916-0.464,1.889-0.717,2.918c-1.102,4.071-2.84,8.999-6.036,14.017c-3.151,5.015-7.586,10.222-13.57,14.603
		c-0.772,0.511-1.552,1.028-2.339,1.549c-0.792,0.518-1.573,1.079-2.445,1.498c-1.713,0.89-3.422,1.904-5.316,2.593
		c-0.93,0.384-1.864,0.794-2.821,1.166c-0.982,0.302-1.972,0.605-2.969,0.912c-0.501,0.153-1.004,0.306-1.509,0.46
		c-0.508,0.148-1.048,0.224-1.575,0.339c-1.067,0.21-2.142,0.421-3.224,0.633c-0.555,0.128-1.063,0.155-1.585,0.21
		c-0.521,0.051-1.044,0.102-1.568,0.154c-0.524,0.051-1.051,0.103-1.578,0.155l-0.793,0.078c0.069,0-0.204,0.012-0.215,0.01
		l-0.104,0l-0.208-0.001l-0.417-0.001c-2.227-0.035-4.507,0.077-6.784-0.264c-4.592-0.361-9.21-1.582-13.714-3.31
		c-1.109-0.485-2.222-0.971-3.34-1.46c-1.113-0.504-2.151-1.161-3.238-1.744l-1.619-0.908c-0.519-0.336-1.023-0.698-1.537-1.048
		c-1.013-0.72-2.076-1.391-3.059-2.17c-0.955-0.816-1.914-1.635-2.875-2.455c-0.238-0.209-0.484-0.41-0.715-0.626l-0.661-0.684
		l-1.323-1.375l-1.325-1.384c-0.434-0.469-0.807-0.991-1.214-1.487c-0.778-1.018-1.609-2.007-2.343-3.067
		c-2.95-4.247-5.213-8.999-6.865-13.983l-1.023-3.808l-0.244-0.958l-0.163-1.015l-0.317-2.034l-0.304-2.037
		c-0.062-0.354-0.081-0.659-0.093-0.955l-0.05-0.905l-0.201-3.848l0.211-3.947c0.055-0.656,0.036-1.318,0.154-1.968l0.302-1.953
		l0.308-1.951l0.156-0.974l0.245-0.956l1.03-3.806c1.646-4.986,3.922-9.73,6.868-13.976c0.735-1.058,1.558-2.052,2.346-3.063
		c0.407-0.496,0.779-1.017,1.213-1.487l1.324-1.384l1.322-1.374l0.66-0.683c0.231-0.216,0.477-0.417,0.714-0.626
		c0.955-0.83,1.916-1.647,2.878-2.45c0.982-0.779,2.045-1.449,3.057-2.169c0.514-0.35,1.017-0.712,1.536-1.048l1.618-0.907
		c1.087-0.583,2.124-1.24,3.236-1.744c1.117-0.489,2.23-0.975,3.338-1.46l0.829-0.36l0.858-0.282l1.711-0.552
		c1.144-0.344,2.253-0.769,3.424-0.966c1.153-0.242,2.3-0.483,3.442-0.723c1.144-0.227,2.358-0.29,3.517-0.434
		c2.402-0.347,4.472-0.216,6.626-0.253l0.915,0.002l0.83,0.078c0.551,0.052,1.101,0.105,1.648,0.157
		c1.091,0.129,2.183,0.155,3.245,0.37c1.06,0.211,2.112,0.42,3.157,0.628c0.519,0.114,1.044,0.186,1.55,0.334
		c0.505,0.154,1.007,0.307,1.508,0.46c0.997,0.306,1.987,0.609,2.968,0.911c0.957,0.371,1.889,0.784,2.821,1.162
		c1.894,0.687,3.603,1.701,5.315,2.59c0.872,0.419,1.653,0.979,2.445,1.497c0.788,0.521,1.567,1.038,2.339,1.548
		c5.984,4.378,10.421,9.581,13.573,14.595c3.196,5.017,4.937,9.944,6.038,14.015c0.253,1.028,0.492,2.002,0.718,2.917
		c0.198,0.921,0.284,1.805,0.418,2.615c0.12,0.813,0.232,1.566,0.334,2.255c0.098,0.69,0.079,1.326,0.12,1.891
		C242.841,421.62,242.897,422.828,242.897,422.828z"/>
</g>
</svg>
