<?xml version="1.0" encoding="utf-8"?>
<!-- Generator: Adobe Illustrator 17.1.0, SVG Export Plug-In . SVG Version: 6.00 Build 0)  -->
<!DOCTYPE svg PUBLIC "-//W3C//DTD SVG 1.1//EN" "http://www.w3.org/Graphics/SVG/1.1/DTD/svg11.dtd">
<svg version="1.1" id="Layer_1" xmlns="http://www.w3.org/2000/svg" xmlns:xlink="http://www.w3.org/1999/xlink" x="0px" y="0px"
	 viewBox="0 0 2993.834 437.889" enable-background="new 0 0 2993.834 437.889" xml:space="preserve">
<circle fill="none" stroke="#C7B9AC" stroke-width="9" stroke-miterlimit="10" cx="302.851" cy="257.997" r="66.667"/>
<circle fill="none" stroke="#C7B9AC" stroke-width="8" stroke-miterlimit="10" cx="70.667" cy="257.997" r="66.667"/>
<g>
	<path fill="#C7B9AC" d="M137.333,257.997c-1.148-9.685-2.336-19.367-3.399-29.061c-1.064-9.694-2.176-19.384-3.162-29.086
		l-2.98-29.106l-2.757-29.129c-0.881-9.714-1.796-19.427-2.58-29.151c-0.796-9.724-1.56-19.452-2.267-29.19l-1.011-14.616
		c-0.311-4.876-0.627-9.755-0.851-14.645c-0.233-4.891-0.431-9.788-0.539-14.718c-0.043-2.471-0.08-4.94-0.039-7.456
		c0.023-1.261,0.06-2.531,0.138-3.84c0.046-0.666,0.098-1.329,0.179-2.043l0.155-1.113c0.084-0.436,0.199-0.915,0.313-1.367
		l0.422-1.677l1.754-0.806c9.254-4.253,18.826-7.177,28.45-9.608c9.629-2.429,19.363-4.189,29.112-5.684
		c19.508-2.936,39.133-4.59,58.786-5.359c9.829-0.344,19.666-0.426,29.506-0.258c9.839,0.165,19.682,0.605,29.521,1.39
		c9.836,0.812,19.681,1.896,29.486,3.796c4.903,0.943,9.797,2.104,14.673,3.617c4.863,1.607,9.757,3.342,14.463,6.79l1.575,1.154
		l0.044,2.035l0.63,29.154l0.148,7.29l0.292,7.293l0.61,14.588l0.61,14.591c0.179,4.865,0.545,9.724,0.809,14.586l1.644,29.182
		l1.955,29.173c0.287,4.866,0.642,9.727,0.999,14.588l1.058,14.586l2.174,29.174l2.263,29.178l-2.048-14.492
		c-0.681-4.832-1.353-9.665-1.949-14.506l-1.854-14.519c-0.641-4.838-1.194-9.685-1.749-14.532l-1.677-14.542
		c-0.564-4.847-1.126-9.695-1.619-14.55l-2.948-29.133l-1.304-14.586l-1.252-14.593c-0.381-4.868-0.865-9.726-1.162-14.602
		l-0.964-14.623l-0.964-14.626l-0.469-7.315l-0.274-7.331l-1.059-29.334l1.619,3.189c-1.588-1.151-3.529-2.166-5.586-3.035
		c-2.065-0.868-4.245-1.614-6.464-2.291c-4.467-1.315-9.099-2.351-13.793-3.182c-9.395-1.653-18.977-2.756-28.598-3.475
		c-9.625-0.721-19.296-1.109-28.975-1.224c-9.68-0.124-19.369,0.019-29.049,0.383c-19.359,0.664-38.707,2.205-57.826,4.99
		c-9.556,1.394-19.044,3.152-28.39,5.321c-9.323,2.206-18.54,4.906-27.092,8.692l2.176-2.483c-0.022,0.143-0.055,0.254-0.095,0.415
		l-0.105,0.696c-0.063,0.496-0.116,1.048-0.161,1.596c-0.083,1.124-0.135,2.289-0.174,3.464c-0.073,2.357-0.073,4.763-0.065,7.166
		c0.035,4.817,0.161,9.664,0.322,14.513l0.537,14.567l0.66,14.582c0.473,9.723,1.005,19.449,1.568,29.175l1.668,29.185l3.518,58.38
		l1.74,29.199L137.333,257.997z"/>
</g>
<path fill="#C7B9AC" d="M120.706,62.577c0,0,24.49-40.076,67.113-43.658s97.203-7.207,125.632-0.857
	c27.455,16.056,37.953,20.784,38.213,28.853C274.027,25.106,141.933,27.477,120.706,62.577z"/>
<g>
	<path fill="#C7B9AC" d="M332.851,314.663c0,0-1.055,1.875-3.398,5.162c-2.357,3.269-5.959,7.998-11.207,13.447
		c-5.237,5.44-12.053,11.71-20.854,17.641c-8.765,5.934-19.502,11.633-32.123,15.435c-6.292,1.923-13.028,3.387-20.091,4.261
		c-7.064,0.874-14.451,1.072-22.003,0.647c-3.774-0.202-7.6-0.625-11.425-1.133c-3.779-0.52-7.603-1.105-11.45-1.743
		c-7.704-1.253-15.507-2.836-23.417-4.502c-7.908-1.68-15.911-3.505-23.988-5.407c-4.033-0.962-8.091-1.93-12.17-2.902
		c-4.064-1.008-8.148-2.021-12.248-3.037c-16.386-4.057-33-8.199-49.674-11.478c-8.324-1.675-16.672-3.13-24.97-4.037
		c-8.277-0.882-16.585-1.285-24.374-0.238c-3.877,0.529-7.601,1.471-10.849,2.986c-1.626,0.751-3.12,1.658-4.438,2.723
		c-0.659,0.533-1.281,1.099-1.847,1.713c-0.622,0.693-0.816,0.99-1.137,1.573c-0.541,1.049-0.715,2.158-0.526,3.527
		c0.18,1.356,0.782,2.884,1.595,4.386c1.67,3.026,4.153,5.935,6.823,8.62c5.403,5.392,11.652,10.033,17.876,14.373
		c6.263,4.315,12.659,8.223,18.998,11.842c6.338,3.627,12.65,6.916,18.797,10.026c6.151,3.105,12.175,5.956,18.014,8.571
		c11.692,5.2,22.602,9.565,32.425,12.991c9.83,3.399,18.546,5.96,25.845,7.508c7.293,1.551,13.162,2.154,17.15,1.884
		c1.992-0.116,3.503-0.419,4.495-0.71c0.493-0.153,0.867-0.279,1.108-0.385c0.245-0.099,0.369-0.15,0.369-0.15
		s-0.12,0.061-0.355,0.181c-0.233,0.127-0.595,0.285-1.079,0.483c-0.973,0.375-2.474,0.828-4.489,1.093
		c-4.023,0.561-10.034,0.477-17.514-0.645c-7.485-1.092-16.47-3.056-26.569-5.997c-10.107-2.916-21.363-6.71-33.387-11.519
		c-12.029-4.792-24.886-10.47-38.036-17.472c-6.578-3.494-13.243-7.291-19.867-11.562c-6.622-4.279-13.199-9.029-19.323-14.882
		c-3.033-2.963-5.989-6.188-8.368-10.278c-1.158-2.062-2.2-4.365-2.648-7.086c-0.476-2.682-0.153-5.868,1.188-8.521
		c0.599-1.272,1.627-2.671,2.398-3.516c0.825-0.928,1.727-1.784,2.671-2.578c1.891-1.589,3.975-2.894,6.128-3.939
		c4.322-2.092,8.866-3.184,13.338-3.838c8.976-1.249,17.815-0.816,26.514,0.044c8.703,0.897,17.288,2.345,25.795,4.001
		c16.987,3.442,33.663,7.72,50.043,11.879c8.173,2.097,16.281,4.178,24.292,6.233c8.003,2.042,15.913,4,23.711,5.808
		c7.795,1.822,15.489,3.435,23.021,4.945c3.77,0.745,7.499,1.433,11.2,2.058c3.658,0.598,7.254,1.109,10.838,1.412
		c14.318,1.272,28.027-0.03,40.208-3.181c6.096-1.57,11.801-3.613,17.091-5.89c5.3-2.262,10.156-4.827,14.582-7.476
		c8.839-5.335,15.948-10.997,21.457-16.022c5.496-5.049,9.474-9.404,12.047-12.484C331.624,316.43,332.851,314.663,332.851,314.663z
		"/>
</g>
<path fill="none" stroke="#C7B9AC" stroke-width="2" stroke-miterlimit="10" d="M177.19,436.8l57.659,0.089
	c0.784,0.001,1.42-0.633,1.421-1.417l0.022-14.095c0.001-0.784-0.633-1.42-1.417-1.421l-57.659-0.089
	c-0.784-0.001-1.42,0.633-1.421,1.417l-0.022,14.095C175.772,436.163,176.407,436.799,177.19,436.8z"/>
<rect x="236.28" y="425.041" transform="matrix(1 0.0015 -0.0015 1 0.6623 -0.3818)" fill="none" stroke="#C7B9AC" stroke-width="2" stroke-miterlimit="10" width="22.64" height="7.4"/>
<rect x="261.217" y="425.065" transform="matrix(1 0.0015 -0.0015 1 0.6623 -0.4065)" fill="none" stroke="#C7B9AC" stroke-width="2" stroke-miterlimit="10" width="4.849" height="7.4"/>
<path fill="none" stroke="#C7B9AC" stroke-width="2" stroke-miterlimit="10" d="M272.442,430.59l-2.74,1.555
	c-0.259,0.147-0.58-0.04-0.58-0.338l0.009-6.083c0-0.294,0.314-0.48,0.573-0.341l2.743,1.483l2.716,1.573
	c0.262,0.152,0.257,0.532-0.009,0.677L272.442,430.59z"/>
<circle fill="none" stroke="#C7B9AC" stroke-width="9" stroke-miterlimit="10" cx="320.763" cy="257.997" r="49.265"/>
<circle fill="none" stroke="#C7B9AC" stroke-width="8" stroke-miterlimit="10" cx="70.667" cy="257.997" r="49.265"/>
<line fill="none" stroke="#C7B9AC" stroke-width="6" stroke-miterlimit="10" x1="512.034" y1="62.577" x2="512.034" y2="360.169"/>
<g>
	<path fill="#C7B9AC" d="M674.52,81.427h131.068v29.457h-97.97v70.499h94.66v29.623h-94.66v71.823h101.114v29.457H674.52V81.427z"/>
	<path fill="#C7B9AC" d="M954.033,277.036v29.788c-15.116,5.627-29.899,8.439-44.352,8.439c-23.83,0-42.836-7.059-57.011-21.183
		c-14.178-14.121-21.266-33.041-21.266-56.763c0-23.939,6.894-43.248,20.687-57.922c13.79-14.671,31.939-22.01,54.446-22.01
		c7.832,0,14.865,0.745,21.1,2.234c6.231,1.489,13.927,4.277,23.086,8.357v32.105c-15.225-9.707-29.349-14.563-42.365-14.563
		c-13.57,0-24.715,4.773-33.43,14.314c-8.716,9.544-13.073,21.708-13.073,36.491c0,15.556,4.717,27.914,14.149,37.07
		c9.433,9.158,22.147,13.735,38.146,13.735C925.734,287.131,939.028,283.767,954.033,277.036z"/>
	<path fill="#C7B9AC" d="M1061.105,160.034c23.168,0,42.42,7.476,57.756,22.424c15.334,14.951,23.003,33.734,23.003,56.35
		c0,21.956-7.778,40.188-23.334,54.694c-15.556,14.509-35.141,21.762-58.749,21.762c-22.838,0-41.926-7.364-57.26-22.093
		c-15.336-14.729-23.003-33.124-23.003-55.19c0-22.285,7.75-40.848,23.251-55.688
		C1018.269,167.456,1037.713,160.034,1061.105,160.034z M1059.45,187.175c-14.454,0-26.312,4.745-35.58,14.232
		c-9.268,9.49-13.901,21.571-13.901,36.243c0,14.562,4.742,26.452,14.232,35.663c9.487,9.213,21.679,13.818,36.573,13.818
		c14.783,0,26.892-4.66,36.325-13.984c9.433-9.321,14.149-21.266,14.149-35.828c0-14.452-4.911-26.422-14.729-35.912
		C1086.699,191.919,1074.344,187.175,1059.45,187.175z"/>
	<path fill="#C7B9AC" d="M1273.925,81.427h33.098v231.189h-33.098V81.427z"/>
	<path fill="#C7B9AC" d="M1384.307,160.365v19.362c13.459-14.894,28.738-22.341,45.841-22.341c9.487,0,18.312,2.456,26.478,7.364
		c8.164,4.91,14.37,11.641,18.618,20.189c4.246,8.551,6.371,22.093,6.371,40.628v87.048h-30.119v-86.717
		c0-15.556-2.374-26.67-7.116-33.346c-4.744-6.674-12.688-10.012-23.83-10.012c-14.232,0-26.313,7.116-36.242,21.348v108.727
		h-30.781V160.365H1384.307z"/>
	<path fill="#C7B9AC" d="M1516.203,301.694v-32.437c8.494,5.958,17.183,10.785,26.064,14.48c8.88,3.697,16.355,5.544,22.424,5.544
		c6.289,0,11.693-1.544,16.218-4.634c4.522-3.088,6.785-6.785,6.785-11.088c0-4.411-1.463-8.081-4.385-11.005
		c-2.925-2.922-9.242-7.143-18.949-12.66c-19.419-10.812-32.134-20.05-38.146-27.72c-6.015-7.667-9.019-16.024-9.019-25.072
		c0-11.693,4.551-21.237,13.652-28.63c9.103-7.39,20.823-11.087,35.167-11.087c14.894,0,30.173,4.194,45.841,12.577v29.788
		c-17.873-10.811-32.493-16.218-43.855-16.218c-5.849,0-10.565,1.244-14.149,3.729c-3.586,2.485-5.378,5.771-5.378,9.857
		c0,3.538,1.624,6.907,4.871,10.108c3.248,3.204,8.958,7.064,17.123,11.584l10.76,6.121c25.382,14.341,38.076,30.223,38.076,47.648
		c0,12.464-4.883,22.696-14.646,30.691s-22.315,11.992-37.648,11.992c-9.048,0-17.103-0.967-24.162-2.896
		C1535.785,310.439,1526.903,306.881,1516.203,301.694z"/>
	<path fill="#C7B9AC" d="M1632.707,184.527l56.598-55.604v31.443h48.157v27.141h-48.157v74.636c0,17.434,7.225,26.147,21.679,26.147
		c10.812,0,22.23-3.641,34.257-10.922V305.5c-11.584,6.511-24.219,9.764-37.897,9.764c-13.792,0-25.266-4.025-34.422-12.08
		c-2.87-2.426-5.241-5.156-7.116-8.192c-1.877-3.033-3.449-7.005-4.716-11.915c-1.27-4.908-1.903-14.258-1.903-28.051v-67.52
		h-26.479V184.527z"/>
	<path fill="#C7B9AC" d="M1799.191,160.365v34.918l1.654-2.648c14.563-23.5,29.127-35.249,43.689-35.249
		c11.362,0,23.223,5.738,35.58,17.211l-15.887,26.478c-10.482-9.929-20.189-14.894-29.126-14.894
		c-9.71,0-18.121,4.634-25.237,13.901s-10.674,20.247-10.674,32.933v79.601h-30.285V160.365H1799.191z"/>
	<path fill="#C7B9AC" d="M1998.11,312.616v-19.362c-6.399,6.95-13.71,12.357-21.927,16.218c-8.221,3.86-16.412,5.792-24.576,5.792
		c-9.598,0-18.452-2.399-26.561-7.198c-8.109-4.8-14.232-11.308-18.369-19.528c-4.138-8.218-6.206-21.87-6.206-40.959v-87.213
		h30.119v86.883c0,15.998,2.288,27.168,6.867,33.512c4.577,6.345,12.604,9.516,24.079,9.516c14.341,0,26.533-7.005,36.573-21.018
		V160.365h30.119v152.251H1998.11z"/>
	<path fill="#C7B9AC" d="M2195.374,202.069v110.547h-30.285v-84.731c0-16.88-2.263-28.656-6.785-35.332
		c-4.524-6.674-12.411-10.012-23.665-10.012c-6.288,0-12.055,1.435-17.293,4.303c-5.242,2.87-11.228,7.943-17.956,15.225v110.547
		h-30.119V160.365h30.119v20.024c15.334-15.333,30.339-23.003,45.014-23.003c19.305,0,34.256,9.159,44.848,27.471
		c16.106-18.535,32.933-27.802,50.475-27.802c14.782,0,26.946,5.407,36.49,16.218c9.541,10.814,14.314,27.306,14.314,49.481v89.861
		h-30.119v-90.192c0-12.686-2.593-22.396-7.777-29.126c-5.188-6.728-12.635-10.095-22.342-10.095
		C2217.823,183.203,2206.185,189.492,2195.374,202.069z"/>
	<path fill="#C7B9AC" d="M2461.648,239.139h-107.072c0.771,14.563,5.652,26.147,14.646,34.753
		c8.991,8.605,20.604,12.908,34.836,12.908c19.858,0,38.171-6.178,54.942-18.535v29.457c-9.268,6.181-18.452,10.592-27.554,13.239
		c-9.103,2.648-19.776,3.972-32.022,3.972c-16.771,0-30.342-3.475-40.711-10.426c-10.371-6.95-18.674-16.301-24.906-28.05
		c-6.234-11.75-9.35-25.347-9.35-40.794c0-23.168,6.562-42.006,19.693-56.515c13.128-14.506,30.173-21.762,51.136-21.762
		c20.19,0,36.297,7.062,48.323,21.183c12.024,14.124,18.039,33.043,18.039,56.763V239.139z M2355.238,221.1h76.622
		c-0.773-12.024-4.36-21.291-10.757-27.802c-6.4-6.508-15.006-9.764-25.817-9.764c-10.813,0-19.667,3.255-26.561,9.764
		C2361.828,199.809,2357.331,209.076,2355.238,221.1z"/>
	<path fill="#C7B9AC" d="M2524.368,160.365v19.362c13.459-14.894,28.738-22.341,45.841-22.341c9.487,0,18.312,2.456,26.478,7.364
		c8.164,4.91,14.37,11.641,18.618,20.189c4.246,8.551,6.371,22.093,6.371,40.628v87.048h-30.119v-86.717
		c0-15.556-2.374-26.67-7.116-33.346c-4.744-6.674-12.688-10.012-23.83-10.012c-14.232,0-26.313,7.116-36.242,21.348v108.727
		h-30.781V160.365H2524.368z"/>
	<path fill="#C7B9AC" d="M2642.363,184.527l56.598-55.604v31.443h48.157v27.141h-48.157v74.636c0,17.434,7.225,26.147,21.679,26.147
		c10.812,0,22.23-3.641,34.257-10.922V305.5c-11.584,6.511-24.219,9.764-37.897,9.764c-13.792,0-25.266-4.025-34.422-12.08
		c-2.87-2.426-5.241-5.156-7.116-8.192c-1.877-3.033-3.449-7.005-4.716-11.915c-1.27-4.908-1.903-14.258-1.903-28.051v-67.52
		h-26.479V184.527z"/>
	<path fill="#C7B9AC" d="M2872.229,221.1v64.707c0,5.188,1.763,7.778,5.295,7.778c3.641,0,9.322-2.702,17.046-8.109v18.37
		c-6.842,4.413-12.329,7.421-16.467,9.019c-4.137,1.599-8.468,2.399-12.99,2.399c-12.908,0-20.521-5.073-22.838-15.225
		c-12.8,9.93-26.424,14.894-40.876,14.894c-10.592,0-19.419-3.501-26.479-10.508c-7.062-7.005-10.592-15.805-10.592-26.396
		c0-9.598,3.447-18.175,10.344-25.733c6.894-7.556,16.686-13.542,29.374-17.955l38.56-13.24v-8.109
		c0-18.312-9.159-27.471-27.472-27.471c-16.44,0-32.436,8.497-47.992,25.485v-32.933c11.693-13.79,28.519-20.686,50.475-20.686
		c16.438,0,29.623,4.303,39.553,12.908c3.31,2.759,6.288,6.428,8.936,11.005c2.648,4.58,4.329,9.159,5.048,13.736
		C2871.868,199.615,2872.229,208.303,2872.229,221.1z M2842.606,282.497v-45.179l-20.189,7.778
		c-10.261,4.082-17.517,8.191-21.763,12.328c-4.248,4.138-6.371,9.296-6.371,15.474c0,6.289,2.012,11.419,6.04,15.391
		c4.026,3.972,9.239,5.958,15.64,5.958C2825.56,294.247,2834.44,290.332,2842.606,282.497z"/>
	<path fill="#C7B9AC" d="M2921.875,81.427h30.119v231.189h-30.119V81.427z"/>
</g>
<line fill="none" stroke="#C7B9AC" stroke-width="14" stroke-miterlimit="10" x1="649.034" y1="312.616" x2="2993.834" y2="312.616"/>
</svg>
