<?xml version="1.0" encoding="utf-8"?>
<!-- Generator: Adobe Illustrator 17.1.0, SVG Export Plug-In . SVG Version: 6.00 Build 0)  -->
<!DOCTYPE svg PUBLIC "-//W3C//DTD SVG 1.1//EN" "http://www.w3.org/Graphics/SVG/1.1/DTD/svg11.dtd">
<svg version="1.1" id="Layer_1" xmlns="http://www.w3.org/2000/svg" xmlns:xlink="http://www.w3.org/1999/xlink" x="0px" y="0px"
	 viewBox="0 0 2148.089 462.065" enable-background="new 0 0 2148.089 462.065" xml:space="preserve">
<circle fill="none" stroke="#C7B9AC" stroke-width="9" stroke-miterlimit="10" cx="330.905" cy="258.045" r="66.667"/>
<circle fill="none" stroke="#C7B9AC" stroke-width="9" stroke-miterlimit="10" cx="98.721" cy="258.045" r="66.667"/>
<path fill="none" stroke="#C7B9AC" stroke-width="9" stroke-miterlimit="10" d="M165.388,258.045c0,0-19.54-218.391-14.943-233.333
	C205.618-0.575,352.744-1.725,380.33,18.965c1.149,94.253,17.241,233.333,17.241,233.333"/>
<path fill="none" stroke="#C7B9AC" stroke-width="9" stroke-miterlimit="10" d="M148.76,63.625c0,0,24.49-40.076,67.113-43.658
	s97.203-7.207,125.632-0.857c27.455,16.056,37.953,20.784,38.212,28.853C302.081,26.155,169.987,28.526,148.76,63.625z"/>
<path fill="none" stroke="#C7B9AC" stroke-width="9" stroke-miterlimit="10" d="M330.905,324.712c0,0-40.41,64.088-119.816,52.089
	S32.688,323.209,7.19,351.505c-25.499,28.296,138.023,100.303,165.022,86.803"/>
<path fill="none" stroke="#C7B9AC" stroke-width="7" stroke-miterlimit="10" d="M170.087,458.376l121.903,0.188
	c1.657,0.003,3.002-1.339,3.005-2.995l0.046-29.801c0.003-1.657-1.339-3.002-2.995-3.005l-121.903-0.188
	c-1.657-0.003-3.002,1.339-3.005,2.995l-0.046,29.8C167.089,457.029,168.43,458.374,170.087,458.376z"/>
<rect x="295.017" y="433.514" transform="matrix(1 0.0015 -0.0015 1 0.6818 -0.4919)" fill="none" stroke="#C7B9AC" stroke-width="7" stroke-miterlimit="10" width="47.866" height="15.646"/>
<rect x="352.739" y="433.567" transform="matrix(1 0.0015 -0.0015 1 0.6819 -0.552)" fill="none" stroke="#C7B9AC" stroke-width="7" stroke-miterlimit="10" width="10.251" height="15.646"/>
<path fill="none" stroke="#C7B9AC" stroke-width="7" stroke-miterlimit="10" d="M381.472,445.246l-5.792,3.288
	c-0.547,0.311-1.226-0.085-1.225-0.715l0.02-12.861c0.001-0.621,0.664-1.016,1.211-0.72l5.8,3.134l5.742,3.325
	c0.554,0.321,0.544,1.125-0.019,1.431L381.472,445.246z"/>
<circle fill="none" stroke="#C7B9AC" stroke-width="9" stroke-miterlimit="10" cx="348.817" cy="258.045" r="49.265"/>
<circle fill="none" stroke="#C7B9AC" stroke-width="9" stroke-miterlimit="10" cx="98.721" cy="258.045" r="49.265"/>
<line fill="none" stroke="#C7B9AC" stroke-width="9" stroke-miterlimit="10" x1="486.933" y1="382.344" x2="486.933" y2="76.218"/>
<text transform="matrix(1 0 0 1 588.93 287.7129)" fill="#C7B9AC" font-family="'MyriadPro-Regular'" font-size="214.5184">Eco Instrumental</text>
<line fill="none" stroke="#C7B9AC" stroke-width="6" stroke-miterlimit="10" x1="552.089" y1="287.713" x2="2148.089" y2="287.713"/>
</svg>
