<?xml version="1.0" encoding="utf-8"?>
<!-- Generator: Adobe Illustrator 17.1.0, SVG Export Plug-In . SVG Version: 6.00 Build 0)  -->
<!DOCTYPE svg PUBLIC "-//W3C//DTD SVG 1.1//EN" "http://www.w3.org/Graphics/SVG/1.1/DTD/svg11.dtd">
<svg version="1.1" id="Layer_1" xmlns="http://www.w3.org/2000/svg" xmlns:xlink="http://www.w3.org/1999/xlink" x="0px" y="0px"
	 viewBox="0 0 78.161 78.161" enable-background="new 0 0 78.161 78.161" xml:space="preserve">
<rect x="0" y="0" fill="#DBD9D6" width="78.161" height="78.161"/>
<g>
	<circle fill="#392E2C" cx="48.563" cy="30.687" r="10.018"/>
	<path fill="#392E2C" d="M44.224,31.534c0,0-6.344,11.928-29.341,21.621c12.821,8.252,43.035,5.509,40.056-15.016
		C49.638,27.309,44.224,31.534,44.224,31.534z"/>
	<path fill="#392E2C" d="M53.865,22.383l9.413-0.957c0,0-7.125,2.96-6.931,4.653"/>
	<path fill="#392E2C" d="M55.311,27.621c0,0,5.739,0.308,6.522-1.541c-3.652,4.411-6.522,4.141-6.522,4.141V27.621z"/>
	<path fill="#392E2C" d="M45.007,37.645c0,0-21.256-6.366-28.075-10.051C12.922,32.619,33.376,42.67,39.793,42.67
		C43.002,39.32,45.007,37.645,45.007,37.645z"/>
	<path fill="#392E2C" d="M42.654,40.652c0,0-18.351-3.051-24.526-5.624c-2.366,5.466,15.983,12.211,21.185,11.267
		C41.323,42.573,42.654,40.652,42.654,40.652z"/>
	<path fill="#392E2C" d="M41.626,41.084c0,0-18.593,0.591-25.152-0.727c-1.253,5.823,18.06,8.855,22.977,6.914
		C40.696,43.228,41.626,41.084,41.626,41.084z"/>
</g>
</svg>
